<svg width="45" height="45" viewBox="0 0 45 45" fill="none" xmlns="http://www.w3.org/2000/svg">
<path d="M8.55438 42.3782C6.50556 42.3782 4.58041 41.5798 3.1325 40.1321C0.143335 37.1426 0.143335 32.2782 3.1325 29.289L26.8355 5.58482C28.7451 3.6732 31.2868 2.62177 33.989 2.62177C36.6916 2.62177 39.2331 3.6732 41.1428 5.58482C43.0543 7.49591 44.107 10.036 44.107 12.7381C44.107 15.4408 43.0555 17.9808 41.1444 19.8908L22.485 38.5484C21.9247 39.1084 21.0175 39.1084 20.4576 38.5484C19.8974 37.9883 19.8974 37.0811 20.4576 36.5208L39.1166 17.8631C40.4862 16.4938 41.2394 14.6735 41.2394 12.7381C41.2394 10.8031 40.4846 8.9817 39.1154 7.61219C37.7458 6.24286 35.9255 5.48928 33.989 5.48928C32.0528 5.48928 30.2325 6.24286 28.8629 7.61219L5.16013 31.3164C3.28956 33.1885 3.28956 36.2328 5.16013 38.1045C6.97463 39.9166 10.1338 39.9166 11.9482 38.1045L27.8644 22.1871C28.2972 21.7543 28.5451 21.1553 28.5451 20.5446C28.5451 19.9254 28.303 19.3417 27.8632 18.902C26.9587 17.9975 25.4842 17.9948 24.5797 18.902L13.7097 29.7733C13.1498 30.3336 12.2422 30.3336 11.6823 29.7733C11.1221 29.2133 11.1221 28.3058 11.6823 27.746L22.552 16.8747C24.5739 14.8529 27.866 14.8529 29.8906 16.8747C30.8723 17.8561 31.4126 19.1599 31.4126 20.5447C31.4126 21.9111 30.8582 23.2484 29.8921 24.2145L13.9759 40.1321C12.528 41.5798 10.6028 42.3782 8.55438 42.3782Z" fill="#E2D7BC"/>
</svg>
