<svg width="45" height="45" viewBox="0 0 45 45" fill="none" xmlns="http://www.w3.org/2000/svg">
<path d="M43.0061 1.99493C41.7267 0.717491 39.9927 0 38.1847 0C36.3768 0 34.6428 0.717491 33.3634 1.99493L2.75695 32.602C1.88047 33.4736 1.18553 34.5103 0.712307 35.6522C0.239088 36.7941 -0.00300716 38.0185 2.81925e-05 39.2545V43.1181C2.81925e-05 43.6172 0.198295 44.0958 0.551211 44.4488C0.904127 44.8017 1.38278 45 1.88188 45H5.74533C6.98126 45.0035 8.20561 44.7617 9.34749 44.2888C10.4894 43.8159 11.5261 43.1212 12.3977 42.2449L43.0061 11.6359C44.2829 10.3565 45 8.62289 45 6.8154C45 5.0079 44.2829 3.27425 43.0061 1.99493ZM9.73674 39.5839C8.67538 40.6382 7.24134 41.2318 5.74533 41.2362H3.76374V39.2545C3.76183 38.5129 3.90705 37.7782 4.19099 37.0931C4.47493 36.408 4.89194 35.7859 5.41789 35.263L28.6456 12.0348L32.9739 16.3632L9.73674 39.5839ZM40.3432 8.97487L35.6273 13.6928L31.299 9.37383L36.0168 4.65592C36.301 4.37234 36.6383 4.14751 37.0094 3.99427C37.3805 3.84103 37.7781 3.76238 38.1796 3.76282C38.5811 3.76326 38.9785 3.84277 39.3493 3.99681C39.72 4.15086 40.0568 4.37642 40.3404 4.66063C40.624 4.94483 40.8488 5.28211 41.0021 5.6532C41.1553 6.0243 41.2339 6.42194 41.2335 6.82343C41.2331 7.22492 41.1535 7.62239 40.9995 7.99315C40.8455 8.36391 40.6199 8.70069 40.3357 8.98428L40.3432 8.97487Z" fill="#E2D7BC"/>
</svg>
