<svg width="45" height="45" viewBox="0 0 45 45" fill="none" xmlns="http://www.w3.org/2000/svg">
<path d="M44.4741 41.825L33.2914 30.6423C36.3388 26.9153 37.8371 22.1595 37.4764 17.3587C37.1157 12.5579 34.9236 8.07937 31.3535 4.84951C27.7834 1.61964 23.1084 -0.114467 18.2956 0.00586879C13.4827 0.126205 8.90027 2.09178 5.49602 5.49602C2.09178 8.90027 0.126205 13.4827 0.00586879 18.2956C-0.114467 23.1084 1.61964 27.7834 4.84951 31.3535C8.07937 34.9236 12.5579 37.1157 17.3587 37.4764C22.1595 37.8371 26.9153 36.3388 30.6423 33.2914L41.825 44.4741C42.1784 44.8154 42.6516 45.0042 43.1428 44.9999C43.634 44.9957 44.1039 44.7986 44.4513 44.4513C44.7986 44.1039 44.9957 43.634 44.9999 43.1428C45.0042 42.6516 44.8154 42.1784 44.4741 41.825ZM18.7946 33.7823C15.8303 33.7823 12.9326 32.9032 10.4679 31.2564C8.00315 29.6095 6.08214 27.2688 4.94776 24.5301C3.81337 21.7915 3.51657 18.7779 4.09487 15.8706C4.67317 12.9633 6.10061 10.2927 8.19668 8.19668C10.2927 6.10061 12.9633 4.67317 15.8706 4.09487C18.7779 3.51657 21.7915 3.81337 24.5301 4.94776C27.2688 6.08214 29.6095 8.00315 31.2564 10.4679C32.9032 12.9326 33.7823 15.8303 33.7823 18.7946C33.7778 22.7682 32.1973 26.5778 29.3875 29.3875C26.5778 32.1973 22.7682 33.7778 18.7946 33.7823Z" fill="#E2D7BC"/>
</svg>
