<svg width="125" height="125" viewBox="0 0 125 125" fill="none" xmlns="http://www.w3.org/2000/svg">
<path d="M62.5 0L68.3797 6.55814L75.4945 1.36578L79.8822 9.00307L87.921 5.40341L90.625 13.7861L99.2366 11.9364L100.139 20.6981L108.947 20.6793L108.007 29.4371L116.627 31.25L113.887 39.6211L121.941 43.1864L117.521 50.805L124.658 55.967L118.75 62.5L124.658 69.033L117.521 74.195L121.941 81.8136L113.887 85.3789L116.627 93.75L108.007 95.5629L108.947 104.321L100.139 104.302L99.2366 113.064L90.625 111.214L87.921 119.597L79.8822 115.997L75.4945 123.634L68.3797 118.442L62.5 125L56.6203 118.442L49.5055 123.634L45.1178 115.997L37.079 119.597L34.375 111.214L25.7634 113.064L24.8614 104.302L16.0534 104.321L16.9928 95.5629L8.37341 93.75L11.1131 85.3789L3.05897 81.8136L7.4792 74.195L0.342381 69.033L6.25 62.5L0.342381 55.967L7.4792 50.805L3.05897 43.1864L11.1131 39.6211L8.37341 31.25L16.9928 29.4371L16.0534 20.6793L24.8614 20.6981L25.7634 11.9364L34.375 13.7861L37.079 5.40341L45.1178 9.00307L49.5055 1.36578L56.6203 6.55814L62.5 0Z" fill="#FCE79D"/>
<path d="M30.0488 79.1951C30.2954 79.565 30.6084 79.8401 30.9878 80.0203C31.3767 80.1911 31.7751 80.2764 32.1829 80.2764C32.4106 80.2764 32.643 80.2432 32.8801 80.1768C33.1172 80.1009 33.3306 79.9919 33.5203 79.8496C33.7195 79.7073 33.8808 79.5318 34.0041 79.3232C34.1274 79.1145 34.189 78.8726 34.189 78.5976C34.189 78.2087 34.0657 77.9146 33.8191 77.7154C33.5725 77.5068 33.2642 77.336 32.8943 77.2032C32.5339 77.061 32.1355 76.9282 31.6992 76.8049C31.2724 76.6721 30.874 76.4919 30.5041 76.2642C30.1436 76.0366 29.8401 75.7331 29.5935 75.3537C29.3469 74.9648 29.2236 74.4431 29.2236 73.7886C29.2236 73.4946 29.2852 73.1816 29.4085 72.8496C29.5413 72.5176 29.7453 72.2141 30.0203 71.939C30.2954 71.6639 30.6463 71.4363 31.0732 71.2561C31.5095 71.0664 32.0312 70.9715 32.6382 70.9715C33.1883 70.9715 33.7148 71.0474 34.2175 71.1992C34.7202 71.3509 35.1612 71.6592 35.5407 72.124L34.4309 73.1341C34.2602 72.8686 34.0183 72.6551 33.7053 72.4939C33.3923 72.3326 33.0366 72.252 32.6382 72.252C32.2588 72.252 31.9411 72.3042 31.685 72.4085C31.4383 72.5034 31.2392 72.6314 31.0874 72.7927C30.9356 72.9444 30.8266 73.1104 30.7602 73.2906C30.7033 73.4709 30.6748 73.6368 30.6748 73.7886C30.6748 74.2154 30.7981 74.5427 31.0447 74.7703C31.2913 74.998 31.5949 75.1829 31.9553 75.3252C32.3252 75.4675 32.7236 75.5955 33.1504 75.7093C33.5867 75.8232 33.9851 75.9844 34.3455 76.1931C34.7154 76.3923 35.0237 76.6673 35.2703 77.0183C35.5169 77.3597 35.6402 77.834 35.6402 78.441C35.6402 78.9248 35.5454 79.3611 35.3557 79.75C35.1755 80.1389 34.9289 80.4661 34.6159 80.7317C34.3028 80.9973 33.9329 81.2012 33.5061 81.3435C33.0793 81.4858 32.624 81.5569 32.1402 81.5569C31.4953 81.5569 30.8835 81.4431 30.3049 81.2154C29.7263 80.9878 29.2663 80.6368 28.9248 80.1626L30.0488 79.1951Z" fill="black"/>
<path d="M37.6558 71.2276H41.1985C41.8435 71.2276 42.3746 71.3177 42.792 71.498C43.2093 71.6687 43.5365 71.8916 43.7737 72.1667C44.0203 72.4322 44.191 72.7358 44.2859 73.0772C44.3807 73.4092 44.4281 73.7317 44.4281 74.0447C44.4281 74.3577 44.3807 74.685 44.2859 75.0264C44.191 75.3584 44.0203 75.6619 43.7737 75.937C43.5365 76.2026 43.2093 76.4255 42.792 76.6057C42.3746 76.7764 41.8435 76.8618 41.1985 76.8618H39.0216V81.3008H37.6558V71.2276ZM39.0216 75.6667H40.8143C41.0799 75.6667 41.3408 75.6477 41.5968 75.6097C41.8624 75.5623 42.0948 75.4817 42.294 75.3679C42.5027 75.2541 42.6687 75.0928 42.792 74.8841C42.9153 74.666 42.9769 74.3862 42.9769 74.0447C42.9769 73.7032 42.9153 73.4282 42.792 73.2195C42.6687 73.0013 42.5027 72.8354 42.294 72.7215C42.0948 72.6077 41.8624 72.5318 41.5968 72.4939C41.3408 72.4465 41.0799 72.4228 40.8143 72.4228H39.0216V75.6667Z" fill="black"/>
<path d="M50.7135 81.5569C49.9453 81.5569 49.2386 81.4241 48.5936 81.1585C47.9486 80.8835 47.3938 80.5088 46.929 80.0345C46.4737 79.5603 46.1133 79.0007 45.8477 78.3557C45.5916 77.7107 45.4635 77.0135 45.4635 76.2642C45.4635 75.5149 45.5916 74.8177 45.8477 74.1728C46.1133 73.5278 46.4737 72.9681 46.929 72.4939C47.3938 72.0196 47.9486 71.6497 48.5936 71.3841C49.2386 71.1091 49.9453 70.9715 50.7135 70.9715C51.4818 70.9715 52.1885 71.1091 52.8335 71.3841C53.4784 71.6497 54.0286 72.0196 54.4839 72.4939C54.9486 72.9681 55.3091 73.5278 55.5652 74.1728C55.8308 74.8177 55.9635 75.5149 55.9635 76.2642C55.9635 77.0135 55.8308 77.7107 55.5652 78.3557C55.3091 79.0007 54.9486 79.5603 54.4839 80.0345C54.0286 80.5088 53.4784 80.8835 52.8335 81.1585C52.1885 81.4241 51.4818 81.5569 50.7135 81.5569ZM50.7135 80.2764C51.2921 80.2764 51.8138 80.1721 52.2786 79.9634C52.7434 79.7453 53.1417 79.456 53.4737 79.0955C53.8057 78.7351 54.0618 78.313 54.242 77.8293C54.4222 77.336 54.5123 76.8144 54.5123 76.2642C54.5123 75.7141 54.4222 75.1971 54.242 74.7134C54.0618 74.2202 53.8057 73.7934 53.4737 73.4329C53.1417 73.0725 52.7434 72.7879 52.2786 72.5793C51.8138 72.3611 51.2921 72.252 50.7135 72.252C50.135 72.252 49.6133 72.3611 49.1485 72.5793C48.6837 72.7879 48.2854 73.0725 47.9534 73.4329C47.6214 73.7934 47.3653 74.2202 47.1851 74.7134C47.0049 75.1971 46.9148 75.7141 46.9148 76.2642C46.9148 76.8144 47.0049 77.336 47.1851 77.8293C47.3653 78.313 47.6214 78.7351 47.9534 79.0955C48.2854 79.456 48.6837 79.7453 49.1485 79.9634C49.6133 80.1721 50.135 80.2764 50.7135 80.2764Z" fill="black"/>
<path d="M57.9274 71.2276H59.7201L65.2689 79.5081H65.2973V71.2276H66.6632V81.3008H64.9274L59.3217 73.0203H59.2933V81.3008H57.9274V71.2276Z" fill="black"/>
<path d="M69.5499 79.1951C69.7966 79.565 70.1096 79.8401 70.489 80.0203C70.8779 80.1911 71.2762 80.2764 71.6841 80.2764C71.9117 80.2764 72.1441 80.2432 72.3812 80.1768C72.6184 80.1009 72.8318 79.9919 73.0215 79.8496C73.2207 79.7073 73.3819 79.5318 73.5052 79.3232C73.6285 79.1145 73.6902 78.8726 73.6902 78.5976C73.6902 78.2087 73.5669 77.9146 73.3203 77.7154C73.0737 77.5068 72.7654 77.336 72.3955 77.2032C72.035 77.061 71.6367 76.9282 71.2003 76.8049C70.7735 76.6721 70.3751 76.4919 70.0052 76.2642C69.6448 76.0366 69.3413 75.7331 69.0947 75.3537C68.848 74.9648 68.7247 74.4431 68.7247 73.7886C68.7247 73.4946 68.7864 73.1816 68.9097 72.8496C69.0425 72.5176 69.2464 72.2141 69.5215 71.939C69.7966 71.6639 70.1475 71.4363 70.5743 71.2561C71.0106 71.0664 71.5323 70.9715 72.1394 70.9715C72.6895 70.9715 73.2159 71.0474 73.7186 71.1992C74.2214 71.3509 74.6624 71.6592 75.0418 72.124L73.9321 73.1341C73.7613 72.8686 73.5195 72.6551 73.2064 72.4939C72.8934 72.3326 72.5377 72.252 72.1394 72.252C71.76 72.252 71.4422 72.3042 71.1861 72.4085C70.9395 72.5034 70.7403 72.6314 70.5886 72.7927C70.4368 72.9444 70.3277 73.1104 70.2613 73.2906C70.2044 73.4709 70.176 73.6368 70.176 73.7886C70.176 74.2154 70.2993 74.5427 70.5459 74.7703C70.7925 74.998 71.096 75.1829 71.4564 75.3252C71.8264 75.4675 72.2247 75.5955 72.6516 75.7093C73.0879 75.8232 73.4863 75.9844 73.8467 76.1931C74.2166 76.3923 74.5249 76.6673 74.7715 77.0183C75.0181 77.3597 75.1414 77.834 75.1414 78.441C75.1414 78.9248 75.0466 79.3611 74.8569 79.75C74.6766 80.1389 74.43 80.4661 74.117 80.7317C73.804 80.9973 73.4341 81.2012 73.0073 81.3435C72.5804 81.4858 72.1251 81.5569 71.6414 81.5569C70.9964 81.5569 70.3846 81.4431 69.806 81.2154C69.2274 80.9878 68.7674 80.6368 68.426 80.1626L69.5499 79.1951Z" fill="black"/>
<path d="M81.7809 81.5569C81.0126 81.5569 80.306 81.4241 79.661 81.1585C79.016 80.8835 78.4612 80.5088 77.9964 80.0345C77.5411 79.5603 77.1807 79.0007 76.9151 78.3557C76.659 77.7107 76.5309 77.0135 76.5309 76.2642C76.5309 75.5149 76.659 74.8177 76.9151 74.1728C77.1807 73.5278 77.5411 72.9681 77.9964 72.4939C78.4612 72.0196 79.016 71.6497 79.661 71.3841C80.306 71.1091 81.0126 70.9715 81.7809 70.9715C82.5492 70.9715 83.2559 71.1091 83.9009 71.3841C84.5458 71.6497 85.096 72.0196 85.5513 72.4939C86.016 72.9681 86.3765 73.5278 86.6326 74.1728C86.8981 74.8177 87.0309 75.5149 87.0309 76.2642C87.0309 77.0135 86.8981 77.7107 86.6326 78.3557C86.3765 79.0007 86.016 79.5603 85.5513 80.0345C85.096 80.5088 84.5458 80.8835 83.9009 81.1585C83.2559 81.4241 82.5492 81.5569 81.7809 81.5569ZM81.7809 80.2764C82.3595 80.2764 82.8812 80.1721 83.346 79.9634C83.8107 79.7453 84.2091 79.456 84.5411 79.0955C84.8731 78.7351 85.1292 78.313 85.3094 77.8293C85.4896 77.336 85.5797 76.8144 85.5797 76.2642C85.5797 75.7141 85.4896 75.1971 85.3094 74.7134C85.1292 74.2202 84.8731 73.7934 84.5411 73.4329C84.2091 73.0725 83.8107 72.7879 83.346 72.5793C82.8812 72.3611 82.3595 72.252 81.7809 72.252C81.2023 72.252 80.6807 72.3611 80.2159 72.5793C79.7511 72.7879 79.3527 73.0725 79.0208 73.4329C78.6888 73.7934 78.4327 74.2202 78.2525 74.7134C78.0723 75.1971 77.9822 75.7141 77.9822 76.2642C77.9822 76.8144 78.0723 77.336 78.2525 77.8293C78.4327 78.313 78.6888 78.7351 79.0208 79.0955C79.3527 79.456 79.7511 79.7453 80.2159 79.9634C80.6807 80.1721 81.2023 80.2764 81.7809 80.2764Z" fill="black"/>
<path d="M88.9948 71.2276H92.5375C93.1825 71.2276 93.7136 71.3177 94.131 71.498C94.5483 71.6687 94.8755 71.8916 95.1127 72.1667C95.3593 72.4322 95.53 72.7358 95.6249 73.0772C95.7197 73.4092 95.7672 73.7317 95.7672 74.0447C95.7672 74.3672 95.7102 74.6802 95.5964 74.9837C95.4826 75.2778 95.3166 75.5481 95.0984 75.7947C94.8898 76.0318 94.6289 76.2358 94.3159 76.4065C94.0124 76.5677 93.6709 76.6673 93.2915 76.7053L96.1513 81.3008H94.444L91.883 76.8618H90.3606V81.3008H88.9948V71.2276ZM90.3606 75.6667H92.1533C92.4189 75.6667 92.6798 75.6477 92.9358 75.6097C93.2014 75.5623 93.4338 75.4817 93.633 75.3679C93.8417 75.2541 94.0077 75.0928 94.131 74.8841C94.2543 74.666 94.3159 74.3862 94.3159 74.0447C94.3159 73.7032 94.2543 73.4282 94.131 73.2195C94.0077 73.0013 93.8417 72.8354 93.633 72.7215C93.4338 72.6077 93.2014 72.5318 92.9358 72.4939C92.6798 72.4465 92.4189 72.4228 92.1533 72.4228H90.3606V75.6667Z" fill="black"/>
<path d="M44.7073 62.7561C42.5772 63.8943 40.1951 64.4634 37.561 64.4634C36.2276 64.4634 35 64.252 33.878 63.8293C32.7724 63.3902 31.813 62.7805 31 62C30.2033 61.2032 29.5772 60.252 29.122 59.1463C28.6667 58.0406 28.439 56.813 28.439 55.4634C28.439 54.0813 28.6667 52.8293 29.122 51.7073C29.5772 50.5691 30.2033 49.6016 31 48.8049C31.813 48.0081 32.7724 47.3984 33.878 46.9756C35 46.5366 36.2276 46.3171 37.561 46.3171C38.8781 46.3171 40.1138 46.4797 41.2683 46.8049C42.4228 47.1138 43.4553 47.6748 44.3659 48.4878L42.0976 50.7805C41.5447 50.2439 40.8699 49.8293 40.0732 49.5366C39.2927 49.2439 38.4634 49.0976 37.5854 49.0976C36.6911 49.0976 35.8781 49.2602 35.1463 49.5854C34.4309 49.8943 33.813 50.3333 33.2927 50.9024C32.7724 51.4553 32.3659 52.1057 32.0732 52.8537C31.7967 53.6016 31.6585 54.4065 31.6585 55.2683C31.6585 56.1951 31.7967 57.0488 32.0732 57.8293C32.3659 58.6097 32.7724 59.2845 33.2927 59.8537C33.813 60.4228 34.4309 60.8699 35.1463 61.1951C35.8781 61.5203 36.6911 61.6829 37.5854 61.6829C38.3659 61.6829 39.0976 61.6097 39.7805 61.4634C40.4797 61.3171 41.0976 61.0894 41.6341 60.7805V56.7073H38.0976V53.9268H44.7073V62.7561Z" fill="black"/>
<path d="M47.4224 55.4634C47.4224 54.0813 47.6501 52.8293 48.1054 51.7073C48.5607 50.5691 49.1867 49.6016 49.9834 48.8049C50.7964 48.0081 51.7558 47.3984 52.8615 46.9756C53.9834 46.5366 55.2111 46.3171 56.5444 46.3171C57.894 46.3008 59.1298 46.5041 60.2517 46.9268C61.3737 47.3333 62.3411 47.935 63.1542 48.7317C63.9672 49.5284 64.6013 50.4878 65.0566 51.6097C65.5119 52.7317 65.7395 53.9837 65.7395 55.3658C65.7395 56.7154 65.5119 57.9431 65.0566 59.0488C64.6013 60.1545 63.9672 61.1057 63.1542 61.9024C62.3411 62.6992 61.3737 63.3252 60.2517 63.7805C59.1298 64.2195 57.894 64.4471 56.5444 64.4634C55.2111 64.4634 53.9834 64.252 52.8615 63.8293C51.7558 63.3902 50.7964 62.7805 49.9834 62C49.1867 61.2032 48.5607 60.252 48.1054 59.1463C47.6501 58.0406 47.4224 56.813 47.4224 55.4634ZM50.642 55.2683C50.642 56.1951 50.7802 57.0488 51.0566 57.8293C51.3493 58.6097 51.7558 59.2845 52.2761 59.8537C52.7964 60.4228 53.4143 60.8699 54.1298 61.1951C54.8615 61.5203 55.6745 61.6829 56.5688 61.6829C57.4631 61.6829 58.2761 61.5203 59.0078 61.1951C59.7395 60.8699 60.3655 60.4228 60.8859 59.8537C61.4062 59.2845 61.8046 58.6097 62.081 57.8293C62.3737 57.0488 62.52 56.1951 62.52 55.2683C62.52 54.4065 62.3737 53.6016 62.081 52.8537C61.8046 52.1057 61.4062 51.4553 60.8859 50.9024C60.3655 50.3333 59.7395 49.8943 59.0078 49.5854C58.2761 49.2602 57.4631 49.0976 56.5688 49.0976C55.6745 49.0976 54.8615 49.2602 54.1298 49.5854C53.4143 49.8943 52.7964 50.3333 52.2761 50.9024C51.7558 51.4553 51.3493 52.1057 51.0566 52.8537C50.7802 53.6016 50.642 54.4065 50.642 55.2683Z" fill="black"/>
<path d="M68.6665 46.7561H71.7397V61.2439H79.0812V64.0244H68.6665V46.7561Z" fill="black"/>
<path d="M81.3142 46.7561H88.1191C89.2573 46.7561 90.3549 46.935 91.4118 47.2927C92.4687 47.6341 93.4036 48.1626 94.2167 48.878C95.0297 49.5935 95.6801 50.4959 96.1679 51.5854C96.6557 52.6585 96.8996 53.9268 96.8996 55.3902C96.8996 56.8699 96.615 58.1545 96.0459 59.2439C95.4931 60.3171 94.7695 61.2114 93.8752 61.9268C92.9971 62.626 92.0134 63.1545 90.924 63.5122C89.8508 63.8537 88.7939 64.0244 87.7532 64.0244H81.3142V46.7561ZM86.6801 61.2439C87.6394 61.2439 88.5419 61.1382 89.3874 60.9268C90.2492 60.6992 90.9971 60.3577 91.6313 59.9024C92.2654 59.4309 92.7614 58.8293 93.1191 58.0976C93.4931 57.3496 93.6801 56.4471 93.6801 55.3902C93.6801 54.3496 93.5175 53.4553 93.1923 52.7073C92.8671 51.9593 92.4118 51.3577 91.8264 50.9024C91.2573 50.4309 90.5744 50.0894 89.7776 49.878C88.9971 49.6504 88.1354 49.5366 87.1923 49.5366H84.3874V61.2439H86.6801Z" fill="black"/>
</svg>
