<svg xmlns="http://www.w3.org/2000/svg" width="123.58" height="60" viewBox="0 0 123.58 60"><path d="M19.32,28.8V1.62h6.06c11.54,0,15,5.13,15,13.25C40.34,23.93,38,28.8,26.5,28.8Zm0,1.63h6.49C35.73,30.43,38,32.65,39,41.28l.86,7.87C40.68,56.84,42.39,60,51.62,60a39.37,39.37,0,0,0,8.81-.94V58c-7.35-.08-8.72-1.11-9.92-8.71l-.6-4.88c-1.19-8.63-4.18-14.27-16.83-14.7v-.25c13.16-2,18.12-7.7,18.12-15C51.2,6.41,44.53,0,26.92,0H0V1c7.44.25,9.32,2.22,9.32,5.64V52.82c0,3.5-1.88,5.39-9.32,5.64v1.11H28.29V58.46c-7.18-.25-9-2-9-5.64Zm60.75,2.13V6.67C80.07,3,81.44,1.28,88.79,1V0h-28V1c7.43.25,9.31,2.13,9.31,5.64V52.91c0,3.5-1.88,5.3-9.31,5.55v1.11H88.28V58.46c-6.84-.25-8.21-1.88-8.21-5.55V35l5.56-5.47,15,21.2c3.59,5.21,2.65,7.18-3.68,7.69v1.11h26.67V58.46c-6.07-.94-7.52-2.56-13.25-10.34l-18.2-25.3,8.71-8.55C109.56,5.47,113.75,2.39,120.93,1V0H97.42V1c8.81,1,8,5.72,2.91,10.94Z" fill="#e7ce76"/></svg>