<svg xmlns="http://www.w3.org/2000/svg" width="195" height="32" viewBox="0 0 195 32"><polygon points="62.33 10.54 57.14 0 51.95 10.54 40.35 12.23 48.75 20.43 46.76 32 57.14 26.54 67.52 32 65.54 20.43 73.93 12.23 62.33 10.54" fill="#fce79d"/><polygon points="21.98 10.54 21.97 10.54 16.79 0 11.6 10.54 0 12.23 8.39 20.43 6.41 32 16.79 26.54 27.16 32 25.18 20.43 33.58 12.23 21.98 10.54" fill="#fce79d"/><polygon points="195 12.23 183.39 10.54 178.2 0 173.02 10.54 161.41 12.23 169.81 20.43 167.83 32 178.2 26.54 188.58 32 186.6 20.43 195 12.23" fill="#fce79d"/><polygon points="143.04 10.54 137.85 0 132.66 10.54 121.06 12.23 129.45 20.43 127.47 32 137.85 26.54 148.23 32 146.24 20.43 154.64 12.23 143.04 10.54" fill="#fce79d"/><polygon points="102.68 10.54 97.49 0 92.31 10.54 80.7 12.23 89.1 20.43 87.12 32 97.49 26.54 107.87 32 105.89 20.43 114.29 12.23 102.68 10.54" fill="#fce79d"/></svg>