<svg xmlns="http://www.w3.org/2000/svg" width="195" height="32" viewBox="0 0 195 32"><path d="M107.88,32,97.5,26.53,87.12,32l2-11.58h0l-8.39-8.2,11.6-1.69L97.5,0l5.19,10.53h0l11.6,1.69-8.39,8.2ZM97.5,24.25l7.7,4.05-1.47-8.58L110,13.63l-8.61-1.25L97.5,4.57l-3.85,7.81L85,13.63l6.23,6.09L89.8,28.3ZM67.52,32,57.15,26.53,46.77,32l2-11.58h0l-8.4-8.2L52,10.53,57.15,0l5.18,10.53h0l11.61,1.69-8.4,8.2ZM57.15,24.25l7.69,4.05-1.47-8.58,6.23-6.09L61,12.38,57.15,4.57,53.3,12.38l-8.61,1.25,6.23,6.09L49.45,28.3ZM27.17,32,16.79,26.53,6.41,32l2-11.58h0L0,12.22l11.6-1.69L16.79,0,22,10.53h0l11.6,1.69-8.39,8.2ZM16.79,24.25l7.7,4.05L23,19.72l6.23-6.09-8.61-1.25L16.79,4.57l-3.85,7.81-8.6,1.25,6.22,6.09L9.09,28.3ZM188.59,32l-10.38-5.47L167.83,32l2-11.58-8.39-8.2L173,10.53,178.21,0l5.19,10.53h0L195,12.22l-8.4,8.2ZM165.75,13.63,172,19.72l-1.47,8.58,7.7-4.05,7.7,4.05-1.47-8.58,6.22-6.09-8.6-1.25-3.85-7.81-3.85,7.81ZM148.23,32l-10.38-5.47L127.48,32l2-11.58-8.4-8.2,11.61-1.69L137.85,0,143,10.53h0l11.61,1.69-8.4,8.2ZM125.4,13.63l6.23,6.09-1.47,8.58,7.69-4.05,7.7,4.05-1.47-8.58,6.23-6.09-8.61-1.25-3.85-7.81L134,12.38Z" fill="#fce79d"/></svg>