<svg width="271" height="205" viewBox="0 0 271 205" fill="none" xmlns="http://www.w3.org/2000/svg">
<path d="M202.867 205C231.192 205 251.096 181.375 251.096 153.941C251.096 127.268 231.192 108.216 205.929 108.216C199.04 108.216 190.619 110.502 184.494 114.312L181.432 112.788C185.26 81.5428 215.116 36.58 271 9.145L265.641 0C185.26 30.4833 143.921 80.7807 143.921 139.461C143.921 178.327 166.121 205 202.867 205ZM58.9463 205C88.0367 205 107.941 181.375 107.941 153.941C107.941 127.268 88.0367 108.216 62.774 108.216C55.8842 108.216 47.4633 110.502 41.339 114.312L38.2768 112.788C42.1045 81.5428 71.9605 36.58 127.845 9.145L122.486 0C42.1045 30.4833 0 80.7807 0 139.461C0 178.327 22.9661 205 58.9463 205Z" fill="white"/>
</svg>
